Coordinates
version=1
nRows=5
nColumns=40
inDegrees=yes

Units are S.I. units (second, meters, Newtons, ...)
Angles are in degrees.

endheader
time	pelvis_tilt	pelvis_list	pelvis_rotation	pelvis_tx	pelvis_ty	pelvis_tz	hip_flexion_r	hip_adduction_r	hip_rotation_r	knee_angle_r	knee_angle_r_beta	ankle_angle_r	subtalar_angle_r	mtp_angle_r	hip_flexion_l	hip_adduction_l	hip_rotation_l	knee_angle_l	knee_angle_l_beta	ankle_angle_l	subtalar_angle_l	mtp_angle_l	lumbar_extension	lumbar_bending	lumbar_rotation	arm_flex_r	arm_add_r	arm_rot_r	elbow_flex_r	pro_sup_r	wrist_flex_r	wrist_dev_r	arm_flex_l	arm_add_l	arm_rot_l	elbow_flex_l	pro_sup_l	wrist_flex_l	wrist_dev_l
     35.72000000	     -4.89692096	     -3.71392178	     -0.15740191	      0.91243939	      0.91854163	      0.40598626	     18.37632719	     -7.68414240	     -4.73648017	     59.40571556	     59.40571556	     -3.76815222	    -16.21228210	    -12.47626637	     19.62857422	     -1.44473603	      2.38517651	     30.59213064	     30.59213064	     17.78769640	    -14.95861953	      6.06732183	     -9.08813109	      4.13048157	      3.11292145	     23.53261678	    -12.26832056	     -6.79804149	     34.67577635	     45.68423659	      0.00000000	      0.00000000	      6.75809404	    -13.35497810	      1.64095809	     41.62582408	     45.86334298	      0.00000000	      0.00000000
     35.73785714	     -4.58156646	     -3.84419090	     -0.50614029	      0.91220844	      0.91745858	      0.40479224	     20.00879035	     -7.54693858	     -4.50100430	     62.09294814	     62.09294814	     -3.12179074	    -17.33780286	     -7.47185748	     19.23736373	     -1.54304948	      2.20373150	     31.32313327	     31.32313327	     18.48894710	    -15.13463474	      5.90980648	     -9.37836212	      4.38776805	      2.91310711	     21.24744046	    -12.46808358	     -7.15297326	     32.32234937	     45.81167938	      0.00000000	      0.00000000	      7.79145635	    -13.64107111	      1.24965581	     42.60052764	     45.95891419	      0.00000000	      0.00000000
     35.75571429	     -4.26232210	     -3.92225117	     -0.89012637	      0.91199925	      0.91651988	      0.40363554	     21.58169049	     -7.44998625	     -4.27307611	     64.47480513	     64.47480513	     -2.08461702	    -18.10974050	     -2.06446929	     18.72565139	     -1.55395261	      2.07158500	     31.86927392	     31.86927392	     19.13638471	    -15.45356584	      5.93435842	     -9.68964397	      4.58844984	      2.95158475	     18.83059346	    -12.77323046	     -7.61623711	     29.91638180	     45.94485009	      0.00000000	      0.00000000	      9.03573934	    -13.83455882	      0.84405872	     43.55434028	     46.04935094	      0.00000000	      0.00000000
     35.77357143	     -4.04356203	     -3.99365576	     -1.27739994	      0.91170884	      0.91567822	      0.40260626	     23.17078692	     -7.34950358	     -4.11527129	     66.41655375	     66.41655375	     -0.55585228	    -18.48327221	      3.70448226	     18.27499416	     -1.57563083	      1.89438381	     32.30758234	     32.30758234	     19.75715686	    -15.69165577	      6.01359745	     -9.90731557	      4.79679130	      2.82506949	     16.51996864	    -12.92524451	     -8.37664167	     27.53572625	     46.10740935	      0.00000000	      0.00000000	     10.15608767	    -14.09683018	      0.32310763	     44.46320231	     46.15140027	      0.00000000	      0.00000000
     35.79142857	     -3.83015973	     -4.02087341	     -1.70520226	      0.91143157	      0.91520250	      0.40171451	     24.47843137	     -7.35639686	     -4.09586764	     67.50766818	     67.50766818	      0.23282254	    -18.87211176	      5.56499087	     17.69549357	     -1.56270495	      1.64982164	     32.49800147	     32.49800147	     20.23110310	    -15.93775775	      5.97552637	    -10.15001247	      4.93995708	      2.97616218	     13.90342211	    -13.29175627	     -8.73439582	     25.79359056	     46.19983750	      0.00000000	      0.00000000	     11.36030148	    -14.23360350	     -0.15518072	     45.54108745	     46.23162614	      0.00000000	      0.00000000
